<svg version="1.2" xmlns="http://www.w3.org/2000/svg" viewBox="0 0 164 40" width="164" height="40">
	<title>New Project</title>
	<style>
		.s0 { fill: #000000 } 
		.s1 { fill: #1e3799 } 
	</style>
	<g id="Layer 1">
		<path id="IdeaWall" class="s0" aria-label="IdeaWall"  d="m33.1 34v-18.3h3.8v18.3zm6.9-6.9q0-1.6 0.7-2.9 0.6-1.4 1.7-2.3 1.1-1 2.6-1.5 1.5-0.5 3.2-0.5 0.8 0 1.5 0.1 0.8 0.1 1.4 0.3 0.7 0.1 1.3 0.4 0.6 0.2 1 0.5v-6.6h3.5v19.4h-3.5v-1.3q-0.4 0.3-1 0.6-0.7 0.3-1.4 0.5-0.7 0.2-1.5 0.3-0.7 0.1-1.5 0.1-1.7 0-3.2-0.5-1.5-0.5-2.5-1.4-1.1-1-1.7-2.3-0.6-1.3-0.6-2.9zm3.7 0q0 0.9 0.3 1.6 0.4 0.8 1 1.3 0.6 0.6 1.5 0.9 0.9 0.3 2 0.3 0.7 0 1.4-0.1 0.7-0.2 1.3-0.4 0.7-0.3 1.2-0.6 0.6-0.4 1-0.8v-4.8q-0.5-0.4-1.1-0.7-0.6-0.3-1.2-0.5-0.6-0.2-1.2-0.2-0.6-0.1-1.2-0.1-1.2 0-2.1 0.3-1 0.3-1.6 0.9-0.6 0.5-1 1.3-0.3 0.8-0.3 1.6zm16.8-0.1q-0.1-1.4 0.5-2.6 0.6-1.3 1.7-2.3 1.1-1 2.6-1.6 1.6-0.6 3.6-0.6 2 0 3.5 0.6 1.6 0.6 2.7 1.6 1.1 1.1 1.7 2.5 0.6 1.4 0.6 3 0 0.2 0 0.4 0 0.2 0 0.4h-13.1q0.2 0.6 0.7 1.1 0.5 0.6 1.3 0.9 0.7 0.4 1.7 0.6 1 0.2 2.2 0.2 1.2 0 2.4-0.2 1.2-0.3 2.2-0.7l1.2 2.7q-0.7 0.3-1.4 0.5-0.7 0.3-1.4 0.4-0.8 0.2-1.6 0.3-0.8 0-1.7 0-2.4 0-4.1-0.5-1.8-0.6-3-1.6-1.2-0.9-1.8-2.2-0.6-1.3-0.6-2.9zm3.9-1.3h9.5q-0.2-0.6-0.6-1.1-0.4-0.5-1-0.8-0.6-0.4-1.4-0.6-0.7-0.2-1.7-0.2-1 0-1.8 0.2-0.8 0.2-1.4 0.6-0.6 0.4-1 0.8-0.4 0.5-0.6 1.1zm16.1 3.9q0-1 0.5-1.8 0.4-0.8 1.3-1.4 0.9-0.6 2.1-0.9 1.3-0.3 3.1-0.3 1.2 0 2.6 0.2 1.5 0.2 3 0.5-0.1-0.6-0.4-1.2-0.4-0.5-1-0.9-0.6-0.4-1.4-0.7-0.9-0.2-2-0.2-0.5 0-1.2 0.1-0.7 0.1-1.5 0.2-0.7 0.1-1.5 0.3-0.7 0.3-1.3 0.6l-1.1-2.9q0.8-0.3 1.7-0.5 0.9-0.2 1.8-0.4 1-0.2 1.9-0.3 0.9-0.1 1.8-0.1 3.9 0 5.8 2 1.9 2 1.9 6.1v6h-3.5v-1.3q-0.6 0.3-1.2 0.6-0.6 0.3-1.4 0.5-0.7 0.2-1.6 0.3-0.9 0.1-1.8 0.1-1.6 0-2.9-0.3-1.2-0.4-2-1-0.8-0.6-1.2-1.4-0.5-0.9-0.5-1.9zm3.7-0.1q0 0.4 0.2 0.7 0.2 0.3 0.5 0.5 0.4 0.3 1 0.4 0.6 0.2 1.5 0.2 0.9 0 1.8-0.2 0.8-0.2 1.6-0.4 0.7-0.3 1.3-0.7 0.6-0.3 1-0.7v-0.6q-0.8-0.2-1.6-0.4-0.8-0.1-1.5-0.2-0.7-0.1-1.3-0.1-0.6-0.1-1.1-0.1-1 0-1.6 0.2-0.7 0.1-1.1 0.3-0.4 0.2-0.5 0.5-0.2 0.3-0.2 0.6zm23.2 4.5l-8.1-18.3h4l5 11.8 1.1 2.9 0.9-2.9 1.9-4.3-3.3-7.5h3.8l1.3 3.6 1.3-3.6h3.8l-3.3 7.5 1.9 4.4 1.1 2.8 0.9-2.8 5-11.9h4l-8.1 18.3h-3.6l-1.7-3.6-1.3-3.6-1.3 3.6-1.7 3.6zm23.2-4.4q0-1 0.5-1.8 0.4-0.8 1.3-1.4 0.8-0.6 2.1-0.9 1.3-0.3 3-0.3 1.3 0 2.7 0.2 1.4 0.2 2.9 0.5 0-0.6-0.4-1.2-0.3-0.5-0.9-0.9-0.6-0.4-1.5-0.7-0.8-0.2-1.9-0.2-0.6 0-1.3 0.1-0.7 0.1-1.4 0.2-0.8 0.1-1.5 0.3-0.7 0.3-1.4 0.6l-1-2.9q0.8-0.3 1.7-0.5 0.9-0.2 1.8-0.4 0.9-0.2 1.9-0.3 0.9-0.1 1.8-0.1 3.9 0 5.8 2 1.8 2 1.8 6.1v6h-3.4v-1.3q-0.6 0.3-1.2 0.6-0.6 0.3-1.4 0.5-0.7 0.2-1.6 0.3-0.9 0.1-1.8 0.1-1.6 0-2.9-0.3-1.2-0.4-2-1-0.8-0.6-1.3-1.4-0.4-0.9-0.4-1.9zm3.7-0.1q0 0.4 0.2 0.7 0.1 0.3 0.5 0.5 0.4 0.3 1 0.4 0.6 0.2 1.5 0.2 0.9 0 1.7-0.2 0.9-0.2 1.6-0.4 0.8-0.3 1.4-0.7 0.6-0.3 1-0.7v-0.6q-0.8-0.2-1.6-0.4-0.8-0.1-1.5-0.2-0.7-0.1-1.3-0.1-0.7-0.1-1.1-0.1-1 0-1.6 0.2-0.7 0.1-1.1 0.3-0.4 0.2-0.6 0.5-0.1 0.3-0.1 0.6zm17.1 4.5v-19.4h3.4v19.4zm8 0v-19.4h3.5v19.4z"/>
		<path id="Combined-Shape copy" class="s1" d="m16.5 27.8h-6.9-1.6l-1-1.2c-0.7-0.8-1.8-2.2-2.9-3.9-1.1-1.8-1.9-3.5-2.5-5.2q-0.6-1.9-0.6-3.7c0-6.5 5.4-11.8 12.1-11.8 6.6 0 12 5.3 12 11.8 0 1.8-0.7 3.7-1.9 6.1q-0.5 1-1.1 2.1-0.9 1.6-1.9 3.1-0.6 0.9-0.9 1.3l-1 1.4zm0-3.4c0 0 5.2-7.4 5.2-10.6 0-4.6-3.9-8.4-8.7-8.4-4.7 0-8.6 3.8-8.6 8.4 0 4.6 5.2 10.6 5.2 10.6zm-6.9 8.6c-0.9 0-1.7-0.8-1.7-1.7 0-1 0.8-1.8 1.7-1.8h6.9c1 0 1.7 0.8 1.7 1.8 0 0.9-0.7 1.7-1.7 1.7zm1.7 5.2c-0.9 0-1.7-0.8-1.7-1.8 0-0.9 0.8-1.7 1.7-1.7h3.5c0.9 0 1.7 0.8 1.7 1.7 0 1-0.8 1.8-1.7 1.8zm0.4-29.3c-0.5 0-1.2 0.1-1.9 0.4-1.2 0.7-2 1.8-2 3.5 0 0.7 0.6 1.3 1.3 1.3 0.7 0 1.3-0.6 1.3-1.3 0-0.7 0.2-1 0.6-1.1 0.3-0.2 0.6-0.2 0.7-0.2 0.7 0 1.3-0.6 1.3-1.3 0-0.7-0.6-1.3-1.3-1.3z"/>
	</g>
</svg>