<svg version="1.2" xmlns="http://www.w3.org/2000/svg" viewBox="0 0 164 40" width="164" height="40">
  <title>New Project</title>
  <style>
    .s0 { fill: #1e3799; stroke: #ffffff; stroke-width: 2; paint-order: stroke fill; }
    .s1 { fill: #1e3799; stroke: #ffffff; stroke-width: 2; paint-order: stroke fill; }
  </style>
  <g id="Layer 1">
    <text id="IdeaWall" class="s0" aria-label="IdeaWall"
      x="32" y="32"
      font-family="ui-sans-serif, system-ui, sans-serif, 'Apple Color Emoji', 'Segoe UI Emoji', 'Segoe UI Symbol', 'Noto Color Emoji'"
      font-size="29"
      font-weight="bold"
      fill="#1e3799"
    >IdeaWall</text>
    <path id="Combined-Shape copy" class="s1"
      d="m16.5 27.8h-6.9-1.6l-1-1.2c-0.7-0.8-1.8-2.2-2.9-3.9-1.1-1.8-1.9-3.5-2.5-5.2q-0.6-1.9-0.6-3.7c0-6.5 5.4-11.8 12.1-11.8 6.6 0 12 5.3 12 11.8 0 1.8-0.7 3.7-1.9 6.1q-0.5 1-1.1 2.1-0.9 1.6-1.9 3.1-0.6 0.9-0.9 1.3l-1 1.4zm0-3.4c0 0 5.2-7.4 5.2-10.6 0-4.6-3.9-8.4-8.7-8.4-4.7 0-8.6 3.8-8.6 8.4 0 4.6 5.2 10.6 5.2 10.6zm-6.9 8.6c-0.9 0-1.7-0.8-1.7-1.7 0-1 0.8-1.8 1.7-1.8h6.9c1 0 1.7 0.8 1.7 1.8 0 0.9-0.7 1.7-1.7 1.7zm1.7 5.2c-0.9 0-1.7-0.8-1.7-1.8 0-0.9 0.8-1.7 1.7-1.7h3.5c0.9 0 1.7 0.8 1.7 1.7 0 1-0.8 1.8-1.7 1.8zm0.4-29.3c-0.5 0-1.2 0.1-1.9 0.4-1.2 0.7-2 1.8-2 3.5 0 0.7 0.6 1.3 1.3 1.3 0.7 0 1.3-0.6 1.3-1.3 0-0.7 0.2-1 0.6-1.1 0.3-0.2 0.6-0.2 0.7-0.2 0.7 0 1.3-0.6 1.3-1.3 0-0.7-0.6-1.3-1.3-1.3z" />
  </g>
</svg>